<svg xmlns="http://www.w3.org/2000/svg" width="141" height="30" viewBox="0 0 141 30">
    <g fill="#FFF" fill-rule="evenodd">
        <path d="M40.138 21.994h-3.552V7.822h3.552c6.03 0 8.505 3.132 8.505 7.086 0 3.933-2.476 7.086-8.505 7.086zm.137-12.937h-2.177v11.658h2.177c4.768 0 6.855-2.56 6.855-5.83 0-3.268-2.087-5.828-6.855-5.828zM63.015 21.994H61.41l-1.467-3.223H52.31l-1.445 3.223h-1.65l6.74-14.424h.32l6.74 14.424zm-6.9-11.656l-3.301 7.222h6.602l-3.301-7.222zM77.112 22.177L66.934 10.84v11.155H65.42V7.594h.299L75.944 19V7.823h1.512v14.354zM93.662 21.994h-1.604l-1.467-3.223h-7.635l-1.444 3.223h-1.65l6.74-14.424h.32l6.74 14.424zm-6.9-11.656L83.46 17.56h6.601l-3.3-7.222zM95.312 14.886c0-4.732 3.3-7.224 7.496-7.224 2.865 0 4.583 1.257 4.583 1.257l-.251 2.79s-1.674-1.44-4.08-1.44c-2.178 0-4.31 1.485-4.31 4.594 0 2.971 1.925 4.64 4.332 4.64 2.361 0 3.714-1.44 3.714-1.44l1.33 2.332c-1.697 1.28-3.393 1.76-5.295 1.76-4.173 0-7.52-2.538-7.52-7.27M110.738 21.995h3.392V7.823h-3.392zM123.323 10.429v11.565h-3.347V10.43h-3.46l.618-2.606h9.375v2.606zM140.881 21.994h-3.645l-1.077-2.286h-5.639l-1.031 2.286h-3.691l7.267-14.538h.55l7.266 14.538zm-7.541-8.8l-1.857 4.114h3.714l-1.857-4.113zM29.745 14.83c0 8.192-6.658 14.832-14.872 14.832C6.658 29.662 0 23.022 0 14.83 0 6.64 6.658 0 14.873 0c8.214 0 14.872 6.64 14.872 14.83zM14.872 5.654L4.681 15.816h6.73l3.461-3.454 3.463 3.454h6.729L14.872 5.653zm2.847 11.645l-2.846-2.838-2.847 2.838H5.86L3.63 19.523h9.203l2.04-2.033 2.038 2.033h9.205l-2.231-2.225h-6.166z"/>
    </g>
</svg>
