<?xml version="1.0" encoding="UTF-8"?>
<svg width="141px" height="30px" viewBox="0 0 141 30" version="1.1" xmlns="http://www.w3.org/2000/svg" xmlns:xlink="http://www.w3.org/1999/xlink">
    <!-- Generator: Sketch 54.1 (76490) - https://sketchapp.com -->
    <title>dana-cita-black</title>
    <desc>Created with Sketch.</desc>
    <g id="Page-1" stroke="none" stroke-width="1" fill="none" fill-rule="evenodd">
        <g id="dana-cita-black" fill="#000000">
            <path d="M40.138,21.994 L36.586,21.994 L36.586,7.822 L40.138,7.822 C46.168,7.822 48.643,10.954 48.643,14.908 C48.643,18.841 46.167,21.994 40.138,21.994 Z M40.275,9.057 L38.098,9.057 L38.098,20.715 L40.275,20.715 C45.043,20.715 47.13,18.155 47.13,14.885 C47.13,11.617 45.043,9.057 40.275,9.057 L40.275,9.057 Z M63.015,21.994 L61.41,21.994 L59.943,18.771 L52.31,18.771 L50.865,21.994 L49.215,21.994 L55.955,7.57 L56.275,7.57 L63.015,21.994 L63.015,21.994 Z M56.115,10.338 L52.814,17.56 L59.416,17.56 L56.115,10.338 L56.115,10.338 Z M77.112,22.177 L66.934,10.84 L66.934,21.995 L65.42,21.995 L65.42,7.594 L65.719,7.594 L75.944,19 L75.944,7.823 L77.456,7.823 L77.456,22.177 L77.112,22.177 Z M93.662,21.994 L92.058,21.994 L90.591,18.771 L82.956,18.771 L81.512,21.994 L79.862,21.994 L86.602,7.57 L86.922,7.57 L93.662,21.994 L93.662,21.994 Z M86.762,10.338 L83.46,17.56 L90.061,17.56 L86.761,10.338 L86.762,10.338 Z M95.312,14.886 C95.312,10.154 98.612,7.662 102.808,7.662 C105.673,7.662 107.391,8.919 107.391,8.919 L107.14,11.709 C107.14,11.709 105.466,10.269 103.06,10.269 C100.882,10.269 98.75,11.754 98.75,14.863 C98.75,17.834 100.675,19.503 103.082,19.503 C105.443,19.503 106.796,18.063 106.796,18.063 L108.126,20.395 C106.429,21.675 104.733,22.155 102.831,22.155 C98.658,22.155 95.311,19.617 95.311,14.885 L95.312,14.886 Z M110.738,21.995 L114.13,21.995 L114.13,7.823 L110.738,7.823 L110.738,21.995 Z M123.323,10.429 L123.323,21.994 L119.976,21.994 L119.976,10.43 L116.516,10.43 L117.134,7.824 L126.509,7.824 L126.509,10.43 L123.323,10.429 Z M140.881,21.994 L137.236,21.994 L136.159,19.708 L130.52,19.708 L129.489,21.994 L125.798,21.994 L133.065,7.456 L133.615,7.456 L140.881,21.994 L140.881,21.994 Z M133.34,13.194 L131.483,17.308 L135.197,17.308 L133.34,13.195 L133.34,13.194 Z M29.745,14.83 C29.745,23.022 23.087,29.662 14.873,29.662 C6.658,29.662 0,23.022 0,14.83 C0,6.64 6.658,0 14.873,0 C23.087,0 29.745,6.64 29.745,14.83 Z M14.872,5.654 L4.681,15.816 L11.411,15.816 L14.872,12.362 L18.335,15.816 L25.064,15.816 L14.872,5.653 L14.872,5.654 Z M17.719,17.299 L14.873,14.461 L12.026,17.299 L5.86,17.299 L3.63,19.523 L12.833,19.523 L14.873,17.49 L16.911,19.523 L26.116,19.523 L23.885,17.298 L17.719,17.298 L17.719,17.299 Z" id="Shape"></path>
        </g>
    </g>
</svg>