<svg xmlns="http://www.w3.org/2000/svg" width="117" height="26" viewBox="0 0 117 26">
    <g fill="none" fill-rule="evenodd">
        <path fill="#4587EF" d="M33.354 19.062h-2.952V6.779h2.952c5.01 0 7.067 2.715 7.067 6.142 0 3.408-2.057 6.14-7.067 6.14m.114-11.211H31.66v10.103h1.81c3.961 0 5.695-2.22 5.695-5.052 0-2.833-1.734-5.051-5.696-5.051M52.364 19.062h-1.332l-1.22-2.794H43.47l-1.2 2.794h-1.371l5.6-12.501h.267l5.6 12.5zM46.632 8.959l-2.743 6.26h5.486l-2.744-6.26zM64.079 19.22l-8.458-9.826v9.668h-1.257V6.582h.248l8.496 9.885V6.78h1.257v12.44zM77.832 19.062h-1.333l-1.22-2.794h-6.343l-1.2 2.794h-1.371l5.6-12.501h.267l5.6 12.5zM72.098 8.959l-2.743 6.26h5.486l-2.743-6.26z"/>
        <path fill="#3151AA" d="M79.203 12.901c0-4.1 2.743-6.26 6.229-6.26 2.38 0 3.809 1.09 3.809 1.09l-.21 2.416S87.642 8.9 85.642 8.9c-1.81 0-3.581 1.288-3.581 3.982 0 2.575 1.6 4.022 3.6 4.022 1.962 0 3.086-1.249 3.086-1.249l1.105 2.022c-1.41 1.108-2.82 1.524-4.4 1.524-3.467 0-6.248-2.198-6.248-6.299M92.022 19.063h2.819V6.78h-2.82zM102.48 9.038v10.024h-2.782V9.038h-2.876l.514-2.258h7.791v2.258zM117.07 19.062h-3.029l-.895-1.981h-4.686l-.857 1.98h-3.067l6.04-12.599h.456l6.038 12.6zm-6.267-7.626L109.26 15h3.086l-1.543-3.565z"/>
        <path fill="#4587EF" d="M26 13c0 7.18-5.82 13-13 13S0 20.18 0 13 5.82 0 13 0s13 5.82 13 13"/>
        <path fill="#3151AA" d="M15.313 15.591l-2.46-2.558-2.46 2.558H5.065l-1.928 2.006h7.954l1.762-1.833 1.762 1.833h7.955l-1.928-2.006z"/>
        <path fill="#FFF" d="M12.853 5.095l-8.808 9.16h5.816l2.992-3.113 2.992 3.113h5.816z"/>
    </g>
</svg>
