<svg xmlns="http://www.w3.org/2000/svg" width="63" height="63" viewBox="0 0 63 63">
    <defs>
        <filter id="a" width="149.1%" height="149.1%" x="-24.5%" y="-24.5%" filterUnits="objectBoundingBox">
            <feOffset dx="2" dy="3" in="SourceAlpha" result="shadowOffsetOuter1"/>
            <feGaussianBlur in="shadowOffsetOuter1" result="shadowBlurOuter1" stdDeviation="2"/>
            <feColorMatrix in="shadowBlurOuter1" result="shadowMatrixOuter1" values="0 0 0 0 0 0 0 0 0 0 0 0 0 0 0 0 0 0 0.177536232 0"/>
            <feMerge>
                <feMergeNode in="shadowMatrixOuter1"/>
                <feMergeNode in="SourceGraphic"/>
            </feMerge>
        </filter>
    </defs>
    <g fill="none" fill-rule="evenodd" filter="url(#a)" transform="translate(2 1)">
        <circle cx="27.5" cy="27.5" r="27.5" fill="#65CF72"/>
        <path fill="#FFF" d="M42.4 27.63c0 7.747-6.33 14.028-14.138 14.028-2.48 0-4.808-.633-6.834-1.745L13.6 42.4l2.552-7.527a13.881 13.881 0 0 1-2.029-7.244c0-7.748 6.33-14.029 14.139-14.029 7.81 0 14.138 6.281 14.138 14.03zM28.262 15.833c-6.555 0-11.887 5.291-11.887 11.795 0 2.58.841 4.971 2.264 6.915l-1.485 4.38 4.568-1.451a11.879 11.879 0 0 0 6.54 1.951c6.554 0 11.887-5.29 11.887-11.794 0-6.504-5.333-11.796-11.887-11.796zm7.14 15.026c-.088-.143-.319-.23-.665-.401-.347-.172-2.051-1.004-2.368-1.119-.318-.114-.55-.172-.78.172-.23.345-.895 1.119-1.098 1.348-.202.23-.404.259-.75.087-.347-.172-1.464-.535-2.787-1.707-1.03-.911-1.726-2.036-1.928-2.38-.202-.345-.022-.53.152-.702.156-.154.346-.402.52-.602.173-.201.231-.344.346-.574.116-.23.058-.43-.029-.602-.086-.172-.78-1.864-1.069-2.553-.288-.688-.577-.574-.78-.574-.201 0-.433-.028-.664-.028-.23 0-.606.086-.924.43-.318.344-1.213 1.176-1.213 2.868s1.242 3.327 1.415 3.556c.174.23 2.397 3.814 5.92 5.191 3.524 1.377 3.524.918 4.16.86.634-.057 2.05-.832 2.34-1.634.287-.804.287-1.492.201-1.636z"/>
    </g>
</svg>
